# xmcd
#
# Track frame offsets: 
#        150
#        12679
#        28063
#        43108
#        56254
#        77351
#        96182
#        108444
#        130837
#        152485
#        174374
#        195316
#        209517
#
# Disc length: 3002 seconds
#
# Revision: 0
# Processed by: cddbd v1.5.2PL0 Copyright (c) Steve Scherf et al.
# Submitted via: ExactAudioCopyFreeDBPlugin 1.0
#
DISCID=a00bb80d
DTITLE=Grand Marquis - Hold On to Me
DYEAR=2010
DGENRE=Swing
TTITLE0=Night is for Lovers
TTITLE1=The Spiders and the Fly
TTITLE2=Topsy
TTITLE3=Hold On to Me
TTITLE4=Sway
TTITLE5=The World is Waiting for the Sunrise
TTITLE6=Ain't No Good to Me
TTITLE7=Exactly Like You
TTITLE8=Saint James Infirmary Blues - Still Blue Waters
TTITLE9=Milenberg Joys
TTITLE10=Dinah
TTITLE11=After You've Gone
TTITLE12=Good Rockin' Tonight
EXTD=
EXTT0=
EXTT1=
EXTT2=
EXTT3=
EXTT4=
EXTT5=
EXTT6=
EXTT7=
EXTT8=
EXTT9=
EXTT10=
EXTT11=
EXTT12=
PLAYORDER=
